<?xml version="1.0" encoding="UTF-8"?>
<svg version="1.1" xmlns="http://www.w3.org/2000/svg" width="61" height="51">
<path d="M0 0 C20.13 0 40.26 0 61 0 C61 16.83 61 33.66 61 51 C40.87 51 20.74 51 0 51 C0 34.17 0 17.34 0 0 Z " fill="#FAFAFA" transform="translate(0,0)"/>
<path d="M0 0 C1.17796143 0.00128906 2.35592285 0.00257812 3.56958008 0.00390625 C11.92859119 0.09625188 19.60066187 0.82065378 27.625 3.3125 C27.625 3.6425 27.625 3.9725 27.625 4.3125 C19.705 5.3025 11.785 6.2925 3.625 7.3125 C3.625 7.9725 3.625 8.6325 3.625 9.3125 C9.895 8.9825 16.165 8.6525 22.625 8.3125 C22.625 8.9725 22.625 9.6325 22.625 10.3125 C16.26228306 12.80650136 10.62225011 13.76159417 3.8125 13.875 C2.15995902 13.90956128 0.50756332 13.95223689 -1.14453125 14.00390625 C-2.22118042 14.02239624 -2.22118042 14.02239624 -3.31958008 14.04125977 C-5.67462439 14.35203946 -7.2870183 15.21193282 -9.375 16.3125 C-10.035 16.3125 -10.695 16.3125 -11.375 16.3125 C-11.375 16.9725 -11.375 17.6325 -11.375 18.3125 C-10.385 18.3125 -9.395 18.3125 -8.375 18.3125 C-8.375 17.6525 -8.375 16.9925 -8.375 16.3125 C-4.28496141 15.16267398 -0.34322949 15.20155744 3.875 15.25 C4.62007812 15.25451172 5.36515625 15.25902344 6.1328125 15.26367188 C7.9635764 15.27540754 9.79429873 15.2933415 11.625 15.3125 C12.12 16.3025 12.12 16.3025 12.625 17.3125 C10.315 17.9725 8.005 18.6325 5.625 19.3125 C5.625 19.9725 5.625 20.6325 5.625 21.3125 C-5.925 21.3125 -17.475 21.3125 -29.375 21.3125 C-29.375 15.7025 -29.375 10.0925 -29.375 4.3125 C-20.33547824 -0.20726088 -9.9301235 -0.04527519 0 0 Z " fill="#F7F7F7" transform="translate(29.375,29.6875)"/>
<path d="M0 0 C4.28575173 2.26892739 7.5624855 4.7812249 10 9 C10.46731962 12.79121271 10.73363083 16.53273835 9 20 C0.75 20 -7.5 20 -16 20 C-17.60937584 16.78124833 -17.4623984 13.4907823 -17 10 C-13.40287018 2.80574037 -8.18348202 -1.16906886 0 0 Z " fill="#090909" transform="translate(33,7)"/>
<path d="M0 0 C1.17796143 0.00128906 2.35592285 0.00257812 3.56958008 0.00390625 C11.92859119 0.09625188 19.60066187 0.82065378 27.625 3.3125 C27.625 3.6425 27.625 3.9725 27.625 4.3125 C24.33510715 4.82464451 21.04287138 5.31990064 17.75 5.8125 C16.8321875 5.95558594 15.914375 6.09867188 14.96875 6.24609375 C6.80443545 7.45349238 -1.10364492 7.99246471 -9.25 6.375 C-15.27290765 5.27210392 -21.26976678 4.7238455 -27.375 4.3125 C-21.46716229 -1.59533771 -7.83564755 -0.03572569 0 0 Z " fill="#151514" transform="translate(29.375,29.6875)"/>
<path d="M0 0 C0.74168427 0.00444122 1.48336853 0.00888245 2.24752808 0.01345825 C3.50860886 0.01368484 3.50860886 0.01368484 4.79516602 0.01391602 C6.15773026 0.02939987 6.15773026 0.02939987 7.54782104 0.04519653 C8.47722504 0.04802643 9.40662903 0.05085632 10.36419678 0.05377197 C13.33959704 0.06498834 16.3146989 0.09009543 19.29000854 0.11550903 C21.30432712 0.12553696 23.31865041 0.13466313 25.33297729 0.14285278 C30.27710311 0.16493243 35.22100519 0.1994721 40.16500854 0.24050903 C40.16500854 0.90050903 40.16500854 1.56050903 40.16500854 2.24050903 C32.52179989 5.33049071 25.797562 5.69633696 17.60250854 5.61550903 C16.42237183 5.6271106 15.24223511 5.63871216 14.02633667 5.65066528 C7.35727277 5.62827335 2.22528 5.07213154 -3.83499146 2.24050903 C-1.83499146 0.24050903 -1.83499146 0.24050903 0 0 Z " fill="#151515" transform="translate(11.834991455078125,37.759490966796875)"/>
<path d="M0 0 C0.74507812 0.00451172 1.49015625 0.00902344 2.2578125 0.01367188 C4.0885764 0.02540754 5.91929873 0.0433415 7.75 0.0625 C8.08 0.7225 8.41 1.3825 8.75 2.0625 C1.8566254 4.46019551 -5.1566169 5.10082848 -12.25 3.0625 C-12.25 2.4025 -12.25 1.7425 -12.25 1.0625 C-8.15996141 -0.08732602 -4.21822949 -0.04844256 0 0 Z " fill="#282828" transform="translate(33.25,44.9375)"/>
<path d="M0 0 C0 0.66 0 1.32 0 2 C-4.46204176 2.9154645 -8.34545385 2.97847873 -12.875 2.5625 C-14.02742188 2.46066406 -15.17984375 2.35882813 -16.3671875 2.25390625 C-17.23601563 2.17011719 -18.10484375 2.08632813 -19 2 C-19 1.67 -19 1.34 -19 1 C-16.77100213 0.83109082 -14.54179338 0.66496313 -12.3125 0.5 C-10.45044922 0.36078125 -10.45044922 0.36078125 -8.55078125 0.21875 C-5.68500671 0.04220063 -2.86900043 -0.04388528 0 0 Z " fill="#4D4D4D" transform="translate(52,38)"/>
<path d="M0 0 C0.74362793 0.01047363 1.48725586 0.02094727 2.25341797 0.03173828 C3.46191406 0.04140625 3.46191406 0.04140625 4.69482422 0.05126953 C5.95746094 0.07640625 5.95746094 0.07640625 7.24560547 0.10205078 C8.51984375 0.11558594 8.51984375 0.11558594 9.81982422 0.12939453 C11.9202043 0.15299431 14.02043991 0.18886595 16.12060547 0.22705078 C16.12060547 0.55705078 16.12060547 0.88705078 16.12060547 1.22705078 C10.84060547 1.22705078 5.56060547 1.22705078 0.12060547 1.22705078 C0.12060547 1.88705078 0.12060547 2.54705078 0.12060547 3.22705078 C-1.19939453 2.89705078 -2.51939453 2.56705078 -3.87939453 2.22705078 C-1.87939453 0.22705078 -1.87939453 0.22705078 0 0 Z " fill="#2B2B2B" transform="translate(11.87939453125,37.77294921875)"/>
</svg>
